<svg width="44" height="44" viewBox="0 0 44 44" fill="none" xmlns="http://www.w3.org/2000/svg">
<g id="lock-01">
<path id="Icon" d="M31.1673 18.3333V14.6667C31.1673 9.60406 27.0633 5.5 22.0007 5.5C16.938 5.5 12.834 9.60406 12.834 14.6667V18.3333M22.0007 26.5833V30.25M16.134 38.5H27.8673C30.9476 38.5 32.4878 38.5 33.6643 37.9005C34.6992 37.3732 35.5405 36.5318 36.0679 35.4969C36.6673 34.3204 36.6673 32.7803 36.6673 29.7V27.1333C36.6673 24.053 36.6673 22.5129 36.0679 21.3364C35.5405 20.3015 34.6992 19.4601 33.6643 18.9328C32.4878 18.3333 30.9476 18.3333 27.8673 18.3333H16.134C13.0537 18.3333 11.5136 18.3333 10.337 18.9328C9.30215 19.4601 8.46075 20.3015 7.93345 21.3364C7.33398 22.5129 7.33398 24.053 7.33398 27.1333V29.7C7.33398 32.7803 7.33398 34.3204 7.93345 35.4969C8.46075 36.5318 9.30215 37.3732 10.337 37.9005C11.5136 38.5 13.0537 38.5 16.134 38.5Z" stroke="#1A2829" stroke-width="3" stroke-linecap="round" stroke-linejoin="round"/>
</g>
</svg>
